# xmcd
#
# Track frame offsets:
#	150
#	12691
#	28200
#	48033
#	60967
#	74439
#	86844
#	101344
#	111405
#	123916
#	136041
#	146168
#	157318
#	166459
#	187584
#	196958
#	206236
#	217153
#	230455
# Disc length: 3199 seconds
# Revision: 1
# Processed by: cddbd v1.5.1PL0 Copyright (c) Steve Scherf et al.
#
# Submitted via: libkcddb 0.20
#
DISCID=190c7d13
DTITLE=Various Artist - Global Roots bluegrass [CD1]
DYEAR=2002
DGENRE=Bluegrass
TTITLE0=Conway Twitty - Rocky Top
TTITLE1=Vince Gill - High Lonesome Sound
TTITLE2=Nitty Gritty Dity Band/Johnny Cash - Life's Railway To Heaven
TTITLE3=Dillard and Clark - Git it On Brother (Git in Line Brother)
TTITLE4=Lotetta Lynn - Coal Miner's Daughter
TTITLE5=Tom T. Hall - Paradise
TTITLE6=Allison Moorer - The Hardest Part
TTITLE7=The Stanley Brothers - Blue Moon Of Kentucky
TTITLE8=Hank Williams Snr/Kitty Wells/Johnny Wright - Dear Brother
TTITLE9=Flatt And Scruggs - Foggy Mountain Breakdown
TTITLE10=Porter Wagoner - Uncle Pen
TTITLE11=Hank Williams Jnr - Mule Skinner Blues
TTITLE12=Bill Monroe - Rocky Road Blues
TTITLE13=Vince Gill - The Hills of Caroline
TTITLE14=Tom T. Hall - Fox On The Run
TTITLE15=Marty Robbins - Mother Knows Best
TTITLE16=The Statler Brothers - Flowers on the Wall
TTITLE17=The Carter Family - My Dixie Darling
TTITLE18=Marty Stuart - Mr John Henry, Steel Driving Man
EXTD=
EXTT0=
EXTT1=
EXTT2=
EXTT3=
EXTT4=
EXTT5=
EXTT6=
EXTT7=
EXTT8=
EXTT9=
EXTT10=
EXTT11=
EXTT12=
EXTT13=
EXTT14=
EXTT15=
EXTT16=
EXTT17=
EXTT18=
PLAYORDER=
